<svg width="500" height="500" xmlns="http://www.w3.org/2000/svg"><rect x="0" y="0" width="500" height="500" stroke="0" fill="rgb(255, 255, 255)" opacity="1" /><circle cx="10.0" cy="10.0" r="2" stroke="0" fill="rgb(0, 0, 0)" opacity="1" /><circle cx="240.0" cy="240.0" r="2" stroke="0" fill="rgb(0, 0, 0)" opacity="1" /><circle cx="260.0" cy="260.0" r="2" stroke="0" fill="rgb(0, 0, 0)" opacity="1" /><circle cx="240.0" cy="260.0" r="2" stroke="0" fill="rgb(0, 0, 0)" opacity="1" /><circle cx="260.0" cy="240.0" r="2" stroke="0" fill="rgb(0, 0, 0)" opacity="1" /><circle cx="230.0" cy="240.0" r="2" stroke="0" fill="rgb(0, 0, 0)" opacity="1" /><circle cx="240.0" cy="230.0" r="2" stroke="0" fill="rgb(0, 0, 0)" opacity="1" /><circle cx="260.0" cy="230.0" r="2" stroke="0" fill="rgb(0, 0, 0)" opacity="1" /><circle cx="270.0" cy="240.0" r="2" stroke="0" fill="rgb(0, 0, 0)" opacity="1" /><circle cx="270.0" cy="260.0" r="2" stroke="0" fill="rgb(0, 0, 0)" opacity="1" /><circle cx="260.0" cy="270.0" r="2" stroke="0" fill="rgb(0, 0, 0)" opacity="1" /><circle cx="230.0" cy="260.0" r="2" stroke="0" fill="rgb(0, 0, 0)" opacity="1" /><circle cx="240.0" cy="270.0" r="2" stroke="0" fill="rgb(0, 0, 0)" opacity="1" /><circle cx="250.0" cy="250.0" r="2" stroke="0" fill="rgb(0, 0, 0)" opacity="1" /><circle cx="240.0" cy="250.0" r="2" stroke="0" fill="rgb(0, 0, 0)" opacity="1" /><circle cx="250.0" cy="260.0" r="2" stroke="0" fill="rgb(0, 0, 0)" opacity="1" /><circle cx="260.0" cy="250.0" r="2" stroke="0" fill="rgb(0, 0, 0)" opacity="1" /><circle cx="250.0" cy="240.0" r="2" stroke="0" fill="rgb(0, 0, 0)" opacity="1" /><circle cx="120.0" cy="360.0" r="2" stroke="0" fill="rgb(0, 0, 0)" opacity="1" /><circle cx="120.0" cy="370.0" r="2" stroke="0" fill="rgb(0, 0, 0)" opacity="1" /><circle cx="130.0" cy="370.0" r="2" stroke="0" fill="rgb(0, 0, 0)" opacity="1" /><circle cx="110.0" cy="370.0" r="2" stroke="0" fill="rgb(0, 0, 0)" opacity="1" /><circle cx="120.0" cy="380.0" r="2" stroke="0" fill="rgb(0, 0, 0)" opacity="1" /><circle cx="130.0" cy="380.0" r="2" stroke="0" fill="rgb(0, 0, 0)" opacity="1" /><circle cx="140.0" cy="380.0" r="2" stroke="0" fill="rgb(0, 0, 0)" opacity="1" /><circle cx="130.0" cy="390.0" r="2" stroke="0" fill="rgb(0, 0, 0)" opacity="1" /><circle cx="370.0" cy="360.0" r="2" stroke="0" fill="rgb(0, 0, 0)" opacity="1" /><circle cx="370.0" cy="370.0" r="2" stroke="0" fill="rgb(0, 0, 0)" opacity="1" /><circle cx="380.0" cy="370.0" r="2" stroke="0" fill="rgb(0, 0, 0)" opacity="1" /><circle cx="360.0" cy="370.0" r="2" stroke="0" fill="rgb(0, 0, 0)" opacity="1" /><circle cx="370.0" cy="380.0" r="2" stroke="0" fill="rgb(0, 0, 0)" opacity="1" /><circle cx="380.0" cy="380.0" r="2" stroke="0" fill="rgb(0, 0, 0)" opacity="1" /><circle cx="390.0" cy="380.0" r="2" stroke="0" fill="rgb(0, 0, 0)" opacity="1" /><circle cx="380.0" cy="390.0" r="2" stroke="0" fill="rgb(0, 0, 0)" opacity="1" /><circle cx="370.0" cy="110.0" r="2" stroke="0" fill="rgb(0, 0, 0)" opacity="1" /><circle cx="370.0" cy="120.0" r="2" stroke="0" fill="rgb(0, 0, 0)" opacity="1" /><circle cx="380.0" cy="120.0" r="2" stroke="0" fill="rgb(0, 0, 0)" opacity="1" /><circle cx="360.0" cy="120.0" r="2" stroke="0" fill="rgb(0, 0, 0)" opacity="1" /><circle cx="370.0" cy="130.0" r="2" stroke="0" fill="rgb(0, 0, 0)" opacity="1" /><circle cx="380.0" cy="130.0" r="2" stroke="0" fill="rgb(0, 0, 0)" opacity="1" /><circle cx="390.0" cy="130.0" r="2" stroke="0" fill="rgb(0, 0, 0)" opacity="1" /><circle cx="380.0" cy="140.0" r="2" stroke="0" fill="rgb(0, 0, 0)" opacity="1" /><circle cx="120.0" cy="110.0" r="2" stroke="0" fill="rgb(0, 0, 0)" opacity="1" /><circle cx="120.0" cy="120.0" r="2" stroke="0" fill="rgb(0, 0, 0)" opacity="1" /><circle cx="130.0" cy="120.0" r="2" stroke="0" fill="rgb(0, 0, 0)" opacity="1" /><circle cx="110.0" cy="120.0" r="2" stroke="0" fill="rgb(0, 0, 0)" opacity="1" /><circle cx="120.0" cy="130.0" r="2" stroke="0" fill="rgb(0, 0, 0)" opacity="1" /><circle cx="130.0" cy="130.0" r="2" stroke="0" fill="rgb(0, 0, 0)" opacity="1" /><circle cx="140.0" cy="130.0" r="2" stroke="0" fill="rgb(0, 0, 0)" opacity="1" /><circle cx="130.0" cy="140.0" r="2" stroke="0" fill="rgb(0, 0, 0)" opacity="1" /><circle cx="250.0" cy="250.0" r="2" stroke="0" fill="rgb(0, 0, 255)" opacity="1" /><circle cx="250.0" cy="250.0" r="30.0" stroke="0" fill="rgb(255, 0, 0)" opacity="0.2" /><circle cx="250.0" cy="250.0" r="100.0" stroke="0" fill="rgb(0, 255, 0)" opacity="0.2" /><circle cx="120.0" cy="120.0" r="2" stroke="0" fill="rgb(0, 0, 255)" opacity="1" /><circle cx="120.0" cy="120.0" r="30.0" stroke="0" fill="rgb(255, 0, 0)" opacity="0.2" /><circle cx="120.0" cy="120.0" r="100.0" stroke="0" fill="rgb(0, 255, 0)" opacity="0.2" /><circle cx="370.0" cy="120.0" r="2" stroke="0" fill="rgb(0, 0, 255)" opacity="1" /><circle cx="370.0" cy="120.0" r="30.0" stroke="0" fill="rgb(255, 0, 0)" opacity="0.2" /><circle cx="370.0" cy="120.0" r="100.0" stroke="0" fill="rgb(0, 255, 0)" opacity="0.2" /><circle cx="120.0" cy="370.0" r="2" stroke="0" fill="rgb(0, 0, 255)" opacity="1" /><circle cx="120.0" cy="370.0" r="30.0" stroke="0" fill="rgb(255, 0, 0)" opacity="0.2" /><circle cx="120.0" cy="370.0" r="100.0" stroke="0" fill="rgb(0, 255, 0)" opacity="0.2" /><circle cx="370.0" cy="370.0" r="2" stroke="0" fill="rgb(0, 0, 255)" opacity="1" /><circle cx="370.0" cy="370.0" r="30.0" stroke="0" fill="rgb(255, 0, 0)" opacity="0.2" /><circle cx="370.0" cy="370.0" r="100.0" stroke="0" fill="rgb(0, 255, 0)" opacity="0.2" /><circle cx="0.0" cy="0.0" r="2" stroke="0" fill="rgb(0, 0, 255)" opacity="1" /><circle cx="0.0" cy="0.0" r="30.0" stroke="0" fill="rgb(255, 0, 0)" opacity="0.2" /><circle cx="0.0" cy="0.0" r="100.0" stroke="0" fill="rgb(0, 255, 0)" opacity="0.2" /></svg>