<svg width="500" height="500" xmlns="http://www.w3.org/2000/svg"><rect x="0" y="0" width="500" height="500" stroke="0" fill="rgb(255, 255, 255)" opacity="1" /><circle cx="16.666666666666668" cy="16.666666666666668" r="2" stroke="0" fill="rgb(0, 0, 0)" opacity="1" /><circle cx="16.666666666666668" cy="33.333333333333336" r="2" stroke="0" fill="rgb(0, 0, 0)" opacity="1" /><circle cx="16.666666666666668" cy="50.0" r="2" stroke="0" fill="rgb(0, 0, 0)" opacity="1" /><circle cx="16.666666666666668" cy="66.66666666666667" r="2" stroke="0" fill="rgb(0, 0, 0)" opacity="1" /><circle cx="33.333333333333336" cy="16.666666666666668" r="2" stroke="0" fill="rgb(0, 0, 0)" opacity="1" /><circle cx="33.333333333333336" cy="33.333333333333336" r="2" stroke="0" fill="rgb(0, 0, 0)" opacity="1" /><circle cx="33.333333333333336" cy="50.0" r="2" stroke="0" fill="rgb(0, 0, 0)" opacity="1" /><circle cx="33.333333333333336" cy="66.66666666666667" r="2" stroke="0" fill="rgb(0, 0, 0)" opacity="1" /><circle cx="50.0" cy="16.666666666666668" r="2" stroke="0" fill="rgb(0, 0, 0)" opacity="1" /><circle cx="50.0" cy="33.333333333333336" r="2" stroke="0" fill="rgb(0, 0, 0)" opacity="1" /><circle cx="66.66666666666667" cy="33.333333333333336" r="2" stroke="0" fill="rgb(0, 0, 0)" opacity="1" /><circle cx="66.66666666666667" cy="50.0" r="2" stroke="0" fill="rgb(0, 0, 0)" opacity="1" /><circle cx="66.66666666666667" cy="66.66666666666667" r="2" stroke="0" fill="rgb(0, 0, 0)" opacity="1" /><circle cx="83.33333333333333" cy="33.333333333333336" r="2" stroke="0" fill="rgb(0, 0, 0)" opacity="1" /><circle cx="83.33333333333333" cy="83.33333333333333" r="2" stroke="0" fill="rgb(0, 0, 0)" opacity="1" /><circle cx="50.0" cy="50.0" r="2" stroke="0" fill="rgb(0, 0, 255)" opacity="1" /><circle cx="50.0" cy="50.0" r="50.0" stroke="0" fill="rgb(255, 0, 0)" opacity="0.2" /><circle cx="50.0" cy="50.0" r="133.33333333333334" stroke="0" fill="rgb(0, 255, 0)" opacity="0.2" /></svg>